# Blender v3.6.4 OBJ File: ''
# www.blender.org
o Cube.007
v 11.519920 -3.574973 -4.680723
v -11.519920 -3.574973 -4.680723
v -11.519919 -3.574975 -17.201120
v 11.519920 -3.574971 3.592389
v -11.519920 -3.574971 3.592389
v 11.519920 -3.574969 17.201120
v -11.519920 -3.574969 17.201120
v 24.403713 -3.574973 -4.680723
v 11.519919 -3.574975 -17.201120
v 24.403713 -3.574971 3.592389
v 11.519920 -2.206782 -4.680723
v -11.519920 -2.206782 -4.680723
v -11.519919 -2.206784 -17.201120
v 11.519920 -2.206780 3.592389
v -11.519920 -2.206780 3.592389
v 11.519920 -2.206778 17.201120
v -11.519920 -2.206778 17.201120
v 24.403713 -2.206782 -4.680723
v 11.519919 -2.206784 -17.201120
v 24.403713 -2.206780 3.592389
vt 0.657178 0.626004
vt 0.036949 0.963051
vt 0.036949 0.626004
vt 0.657178 0.403293
vt 0.036949 0.403293
vt 0.657178 0.036948
vt 0.036949 0.036948
vt 0.731075 0.383778
vt 0.953785 0.036949
vt 0.953786 0.383778
vt 0.657178 0.963051
vt 0.731075 0.036949
vt 0.000117 0.036948
vt 0.953785 0.000117
vt 0.000117 0.626004
vt 0.694009 0.626004
vt 0.694009 0.963051
vt 0.694009 0.403293
vt 0.000117 0.403293
vt 0.694243 0.036949
vt 0.036949 0.999883
vt 0.657178 0.000117
vt 0.990617 0.383778
vt 0.731075 0.000117
vt 0.000117 0.963051
vt 0.694009 0.036948
vt 0.694243 0.383778
vt 0.657178 0.999883
vt 0.036949 0.000117
vt 0.990617 0.036949
vn 0.0000 1.0000 -0.0000
vn 1.0000 0.0000 0.0000
vn -1.0000 0.0000 0.0000
vn 0.0000 -0.0000 -1.0000
vn 0.0000 0.0000 1.0000
s off
f 1/1/1 3/2/1 2/3/1
f 4/4/1 2/3/1 5/5/1
f 6/6/1 5/5/1 7/7/1
f 4/8/1 8/9/1 1/10/1
f 1/1/1 9/11/1 3/2/1
f 4/4/1 1/1/1 2/3/1
f 6/6/1 4/4/1 5/5/1
f 4/8/1 10/12/1 8/9/1
f 5/5/2 17/13/2 7/7/2
f 10/12/3 18/14/3 8/9/3
f 3/2/2 12/15/2 2/3/2
f 9/11/3 11/16/3 19/17/3
f 6/6/3 14/18/3 4/4/3
f 2/3/2 15/19/2 5/5/2
f 4/8/4 20/20/4 10/12/4
f 9/11/5 13/21/5 3/2/5
f 7/7/4 16/22/4 6/6/4
f 8/9/5 11/23/5 1/10/5
f 5/5/2 15/19/2 17/13/2
f 10/12/3 20/24/3 18/14/3
f 3/2/2 13/25/2 12/15/2
f 9/11/3 1/1/3 11/16/3
f 6/6/3 16/26/3 14/18/3
f 2/3/2 12/15/2 15/19/2
f 4/8/4 14/27/4 20/20/4
f 9/11/5 19/28/5 13/21/5
f 7/7/4 17/29/4 16/22/4
f 8/9/5 18/30/5 11/23/5
