# Blender v3.6.4 OBJ File: ''
# www.blender.org
o Cube.001
v 0.419693 1.017827 0.074386
v 0.430943 1.032270 0.173368
v 0.468147 1.043980 0.106564
v 0.345374 0.910271 0.238463
v 0.389823 0.901910 0.054550
v 0.351883 0.714972 0.198449
v 0.420987 0.606219 0.281844
v 0.443486 0.712911 0.259346
v 0.412261 0.991858 0.308043
v 0.348094 0.975747 0.285903
v 0.424436 0.971431 0.325147
v 0.573485 0.997521 0.176519
v 0.440979 0.898898 0.298908
v 0.575941 0.883151 0.178150
v 0.396937 0.556806 0.059274
v 0.311400 0.310654 0.206123
v 0.326770 0.606219 0.219275
v 0.578103 0.687680 0.179586
v 0.583599 0.556807 0.183236
v 0.395834 0.689746 0.058541
v 0.400949 -0.052868 0.232440
v 0.435862 -0.066534 0.176793
v 0.390121 -0.066229 0.231513
v 0.456903 0.305726 0.162116
v 0.350664 0.306001 0.090782
v 0.365024 0.310515 0.242128
v 0.353033 -0.103960 0.203879
v 0.437907 -0.053109 0.185400
v 0.485664 -0.066694 0.225106
v 0.435812 -0.066310 0.268536
v 0.438380 -0.052628 0.262538
v 0.480687 -0.053115 0.225681
v 0.448925 0.783552 0.259844
v 0.572384 0.823889 0.175788
v 0.360043 0.787758 0.200688
v 0.394685 0.828108 0.057779
v 0.393769 0.915756 0.369997
v 0.308497 0.913193 0.315728
v 0.395722 0.738963 0.343404
v 0.329958 0.539865 0.323504
v 0.328932 0.738963 0.299048
v 0.336687 0.996203 0.248715
v 0.316114 0.485825 0.358320
v 0.306698 0.540586 0.358528
v 0.291375 0.751683 0.354802
v 0.359608 0.742205 0.397785
v 0.349524 0.540586 0.386968
v 0.372784 0.539865 0.351944
v 0.362329 0.485319 0.353716
v 0.332380 0.485319 0.333827
v 0.346063 0.485825 0.378209
v 0.442722 -0.131166 0.271167
v 0.442772 -0.131389 0.179424
v 0.492574 -0.131550 0.227736
v 0.397031 -0.131085 0.234144
v 0.382362 -0.135395 0.130592
v 0.352742 -0.135031 0.204050
v 0.382658 -0.104335 0.130423
v 0.473321 1.071001 0.178551
v 0.534600 1.084499 0.150695
v 0.487759 1.153399 0.176441
v 0.469446 1.032270 0.198938
v 0.451745 1.239349 0.169971
v 0.417116 1.212896 0.072674
v 0.391246 1.203104 0.120644
v 0.439665 1.071001 0.156200
v 0.424585 1.071470 0.133735
v 0.468747 1.076375 0.106963
v 0.447084 1.075387 0.092577
v 0.496937 1.209890 0.205315
v 0.552517 1.233325 0.162594
v 0.510655 1.269689 0.189633
v 0.557389 1.162627 0.165830
v 0.433224 1.150970 0.182389
v 0.485297 1.263262 0.117954
v 0.412142 1.096720 0.107265
v 0.417116 1.163244 0.072674
v 0.425743 1.085248 0.078404
v 0.391246 1.153453 0.120644
v 0.539379 1.043489 0.153869
v 0.515289 1.032270 0.046360
v 0.548174 0.996203 -0.069743
v 0.542095 0.910271 -0.057759
v 0.611409 0.606218 -0.004895
v 0.507739 0.714971 -0.036239
v 0.599400 0.712910 0.024570
v 0.632172 0.991858 -0.023100
v 0.586875 0.975747 -0.073655
v 0.634892 0.898898 0.006913
v 0.499108 0.310654 -0.076529
v 0.517192 0.606218 -0.067464
v 0.558100 -0.052869 -0.004200
v 0.520353 -0.066534 0.049565
v 0.529080 -0.053110 0.048111
v 0.514988 0.305726 0.074652
v 0.553095 0.310515 -0.041070
v 0.513189 -0.103960 -0.037285
v 0.553046 -0.066230 -0.013820
v 0.584201 -0.066695 0.076727
v 0.582801 -0.053116 0.071917
v 0.604894 -0.066311 0.013932
v 0.600362 -0.052629 0.018625
v 0.601969 0.783552 0.029390
v 0.512967 0.787758 -0.029586
v 0.682102 0.915756 -0.064176
v 0.652659 0.971431 -0.018512
v 0.614496 0.539864 -0.104956
v 0.658348 0.738963 -0.052060
v 0.591558 0.738963 -0.096416
v 0.641217 0.485824 -0.131221
v 0.637756 0.540586 -0.139980
v 0.628378 0.751683 -0.152658
v 0.694463 0.742204 -0.106441
v 0.657322 0.539864 -0.076515
v 0.654900 0.485319 -0.086839
v 0.624951 0.485319 -0.106728
v 0.671166 0.485824 -0.111332
v 0.680582 0.540586 -0.111540
v 0.599005 0.913192 -0.121720
v 0.525458 -0.131390 0.054914
v 0.609999 -0.131167 0.019280
v 0.589307 -0.131551 0.082076
v 0.558151 -0.131085 -0.008471
v 0.457017 -0.135396 0.018176
v 0.456976 -0.104336 0.018514
v 0.513234 -0.135032 -0.037619
v 0.408029 0.306001 0.004402
v 0.536504 1.071001 0.083409
v 0.518936 1.076128 0.140293
v 0.553792 1.032270 0.071930
v 0.520227 1.239349 0.066850
v 0.502849 1.071001 0.061059
v 0.540160 1.153399 0.097535
v 0.476293 1.071470 0.055873
v 0.570334 1.209890 0.094795
v 0.524488 1.150970 0.044963
v 0.561200 1.269689 0.113521
v 0.447068 1.096720 0.054672
v 0.451294 1.203104 0.030223
v 0.451294 1.153453 0.030223
v 0.502263 1.129106 0.193564
v 0.561569 1.129106 0.104262
vt 0.628210 0.977531
vt 0.625000 0.750000
vt 0.628210 0.977531
vt 0.437622 0.750000
vt 0.437622 1.000000
vt 0.375000 0.750000
vt 0.375000 0.500000
vt 0.375000 0.500000
vt 0.625000 0.500000
vt 0.625000 0.750000
vt 0.625000 0.500000
vt 0.625000 0.250000
vt 0.437622 0.500000
vt 0.437622 0.250000
vt 0.375000 1.000000
vt 0.375000 0.750000
vt 0.375000 0.750000
vt 0.375000 0.250000
vt 0.375000 0.250000
vt 0.375000 1.000000
vt 0.375000 0.750000
vt 0.375000 1.000000
vt 0.375000 0.750000
vt 0.000000 0.000000
vt 0.000000 0.000000
vt 0.000000 0.000000
vt 0.375000 0.500000
vt 0.375000 0.250000
vt 0.375000 0.750000
vt 0.000000 0.000000
vt 0.000000 0.000000
vt 0.000000 0.000000
vt 0.375000 0.500000
vt 0.375000 0.500000
vt 0.375000 0.250000
vt 0.375000 0.250000
vt 0.375000 0.500000
vt 0.375000 0.250000
vt 0.375000 0.750000
vt 0.375000 1.000000
vt 0.437622 0.500000
vt 0.437622 0.750000
vt 0.437622 0.500000
vt 0.437622 0.750000
vt 0.437622 0.750000
vt 0.625000 0.750000
vt 0.437622 0.750000
vt 0.437622 0.750000
vt 0.437622 0.750000
vt 0.437622 0.500000
vt 0.437622 0.500000
vt 0.437622 0.500000
vt 0.437622 0.500000
vt 0.437622 0.750000
vt 0.437622 0.500000
vt 0.375000 0.500000
vt 0.125000 0.750000
vt 0.125000 0.500000
vt 0.000000 0.000000
vt 0.375000 0.750000
vt 0.375000 0.250000
vt 0.375000 1.000000
vt 0.375000 0.750000
vt 0.000000 0.000000
vt 0.125000 0.750000
vt 0.375000 1.000000
vt 0.625000 0.500000
vt 0.625000 0.250000
vt 0.625000 0.500000
vt 0.625000 0.500000
vt 0.625000 0.750000
vt 0.875000 0.699203
vt 0.625000 0.750000
vt 0.625000 0.750000
vt 0.625000 0.750000
vt 0.628210 0.977531
vt 0.628210 0.977531
vt 0.625000 0.500000
vt 0.625000 0.250000
vt 0.625000 0.500000
vt 0.625000 0.250000
vt 0.625000 0.750000
vt 0.875000 0.699203
vt 0.625000 0.750000
vt 0.628210 0.977531
vt 0.628210 0.977531
vt 0.628210 0.977531
vt 0.625000 0.750000
vt 0.625000 0.250000
vt 0.625000 0.750000
vt 0.625000 0.750000
vt 0.437622 0.750000
vt 0.375000 0.500000
vt 0.375000 0.750000
vt 0.375000 0.500000
vt 0.625000 0.500000
vt 0.625000 0.750000
vt 0.437622 0.500000
vt 0.375000 0.750000
vt 0.375000 0.750000
vt 0.375000 0.750000
vt 0.375000 1.000000
vt 0.375000 1.000000
vt 0.000000 0.000000
vt 0.000000 0.000000
vt 0.375000 0.500000
vt 0.375000 0.250000
vt 0.375000 0.750000
vt 0.375000 0.750000
vt 0.000000 0.000000
vt 0.000000 0.000000
vt 0.000000 0.000000
vt 0.375000 0.500000
vt 0.375000 0.500000
vt 0.375000 0.250000
vt 0.375000 0.250000
vt 0.375000 0.500000
vt 0.375000 0.750000
vt 0.437622 0.500000
vt 0.625000 0.500000
vt 0.437622 0.750000
vt 0.437622 0.500000
vt 0.437622 0.750000
vt 0.437622 0.750000
vt 0.437622 0.750000
vt 0.437622 0.750000
vt 0.437622 0.500000
vt 0.437622 0.500000
vt 0.437622 0.500000
vt 0.437622 0.750000
vt 0.437622 0.500000
vt 0.437622 0.500000
vt 0.437622 0.750000
vt 0.125000 0.750000
vt 0.375000 0.500000
vt 0.125000 0.500000
vt 0.000000 0.000000
vt 0.000000 0.000000
vt 0.375000 0.750000
vt 0.375000 1.000000
vt 0.375000 1.000000
vt 0.000000 0.000000
vt 0.375000 0.750000
vt 0.000000 0.000000
vt 0.375000 1.000000
vt 0.625000 0.500000
vt 0.625000 0.250000
vt 0.625000 0.500000
vt 0.625000 0.750000
vt 0.625000 0.750000
vt 0.625000 0.500000
vt 0.625000 0.750000
vt 0.625000 0.500000
vt 0.625000 0.750000
vt 0.625000 0.500000
vt 0.875000 0.500000
vt 0.625000 0.750000
vt 0.625000 0.750000
vt 0.625000 0.750000
vt 0.375000 1.000000
vt 0.375000 1.000000
vt 0.000000 0.000000
vt 0.000000 0.000000
vt 0.000000 0.000000
vt 0.000000 0.000000
vt 0.375000 0.250000
vt 0.000000 0.000000
vt 0.125000 0.750000
vn -0.6473 0.6294 -0.4299
vn -0.5225 0.8357 0.1692
vn -0.7118 0.5194 -0.4727
vn -0.9492 -0.1161 -0.2926
vn -0.8282 0.1078 -0.5500
vn -0.9406 0.1865 0.2836
vn -0.0219 0.0307 0.9993
vn 0.0024 0.0972 0.9953
vn 0.1130 0.7092 0.6959
vn -0.7140 0.5491 0.4343
vn 0.6218 0.6009 0.5023
vn 0.7632 0.4008 0.5068
vn 0.7404 -0.2010 0.6414
vn 0.8317 -0.0570 0.5523
vn -0.8308 -0.0733 -0.5517
vn -0.9591 -0.0830 0.2707
vn -0.9396 0.1324 0.3157
vn 0.8323 0.0427 0.5527
vn 0.8083 -0.2420 0.5368
vn -0.8323 0.0410 -0.5528
vn -0.9469 0.2721 0.1713
vn 0.1958 0.5207 -0.8310
vn -0.8086 0.5034 0.3047
vn 0.9787 -0.1743 -0.1086
vn -0.3959 -0.1713 -0.9022
vn -0.0156 -0.0479 0.9987
vn -0.9093 0.3712 0.1881
vn -0.0056 0.2038 -0.9790
vn 0.9760 0.2177 0.0051
vn -0.0313 0.2108 0.9770
vn 0.1037 0.2482 0.9631
vn 0.9711 0.2289 0.0678
vn 0.0419 -0.1355 0.9899
vn 0.8328 -0.0214 0.5531
vn -0.9468 -0.0731 0.3133
vn -0.8320 -0.0507 -0.5525
vn 0.1996 0.3178 0.9269
vn -0.9161 0.3377 0.2161
vn 0.9676 -0.2139 -0.1342
vn -0.2023 -0.1535 -0.9672
vn -0.2562 -0.2041 -0.9448
vn -0.8356 0.5433 0.0812
vn -0.7547 -0.6343 0.1674
vn -0.9731 -0.1126 0.2012
vn -0.9673 0.0518 0.2484
vn 0.1766 0.0250 0.9840
vn 0.1921 -0.1117 0.9750
vn 0.9700 -0.1533 -0.1886
vn 0.7425 -0.6530 -0.1490
vn -0.1507 -0.6530 -0.7422
vn 0.1385 -0.6343 0.7606
vn 0.0481 -0.5681 0.8216
vn 0.5082 -0.6767 -0.5327
vn 0.8436 -0.5358 0.0368
vn -0.4005 -0.7147 0.5734
vn -0.2033 -0.5802 -0.7887
vn -0.7580 -0.6042 0.2457
vn -0.2606 0.4108 -0.8737
vn -0.0444 0.2712 0.9615
vn 0.7142 -0.5148 0.4743
vn 0.1157 -0.3464 0.9309
vn 0.0841 0.7705 0.6318
vn -0.6171 0.6139 0.4923
vn -0.7017 0.5390 -0.4660
vn -0.9105 0.4066 0.0753
vn -0.9226 0.0612 0.3809
vn -0.6270 -0.7479 0.2179
vn -0.5575 -0.7430 -0.3703
vn -0.2405 -0.9574 -0.1597
vn 0.0416 0.0069 0.9991
vn 0.7678 0.3879 0.5099
vn 0.1908 0.8070 0.5589
vn 0.8049 -0.2578 0.5345
vn -0.4495 -0.2400 0.8604
vn -0.2464 0.9553 -0.1636
vn -0.9058 -0.4160 -0.0803
vn -0.8305 -0.0776 -0.5515
vn -0.6269 -0.6586 -0.4163
vn -0.9821 -0.1771 0.0649
vn 0.6615 0.6079 0.4393
vn -0.0468 0.8357 -0.5472
vn -0.2493 0.5433 -0.8017
vn -0.6379 -0.1161 -0.7613
vn 0.9125 0.0307 -0.4079
vn -0.1034 0.1865 -0.9770
vn 0.9183 0.0972 -0.3839
vn 0.6852 0.7092 -0.1658
vn 0.1234 0.5491 -0.8266
vn 0.8784 -0.2010 0.4336
vn -0.1225 -0.0830 -0.9890
vn -0.0735 0.1324 -0.9885
vn -0.2094 0.2721 -0.9392
vn -0.6900 0.5207 0.5028
vn -0.9045 0.2038 0.3746
vn 0.2796 -0.1743 0.9442
vn 0.9145 -0.0479 -0.4018
vn -0.1793 0.3712 -0.9111
vn -0.0328 0.5033 -0.8635
vn 0.3833 0.2177 0.8976
vn 0.4392 0.2288 0.8688
vn 0.8884 0.2108 -0.4078
vn 0.9280 0.2482 -0.2780
vn 0.9286 -0.1355 -0.3453
vn -0.0785 -0.0731 -0.9942
vn 0.9318 0.3178 -0.1756
vn 0.7042 0.6009 0.3783
vn -0.9700 -0.1535 0.1887
vn 0.2516 -0.2139 0.9439
vn -0.9702 -0.2041 0.1304
vn -0.1385 -0.6343 -0.7606
vn -0.1920 -0.1126 -0.9749
vn -0.1463 0.0518 -0.9879
vn 0.9754 0.0250 -0.2189
vn 0.2024 -0.1533 0.9672
vn 0.1507 -0.6531 0.7422
vn -0.7425 -0.6531 0.1490
vn 0.7547 -0.6343 -0.1674
vn 0.9732 -0.1117 -0.2011
vn -0.1562 0.3377 -0.9282
vn -0.2939 -0.6767 0.6750
vn 0.7759 -0.5681 -0.2744
vn 0.3612 -0.5358 0.7632
vn 0.3732 -0.7147 -0.5916
vn -0.8058 -0.5802 0.1186
vn -0.9064 0.4108 0.0987
vn -0.0676 -0.6042 -0.7940
vn -0.9851 -0.1713 -0.0150
vn 0.8690 0.2712 -0.4139
vn 0.7832 -0.3406 0.5201
vn 0.6150 0.7705 -0.1675
vn 0.2143 0.6139 -0.7597
vn -0.0067 0.0612 -0.9981
vn 0.9029 -0.3464 -0.2545
vn -0.0424 -0.7479 -0.6625
vn 0.9370 0.0069 -0.3492
vn 0.6187 -0.2400 -0.7481
vn 0.5891 0.8070 -0.0410
vn -0.4254 -0.4160 -0.8037
vn -0.2837 0.4066 -0.8684
vn -0.3212 -0.1771 -0.9303
s 1
f 1/1/1 2/2/2 3/3/3
f 4/4/4 1/1/1 5/5/5
f 6/6/6 7/7/7 8/8/8
f 9/9/9 10/10/10 11/11/11
f 12/12/12 13/13/13 14/14/14
f 15/15/15 16/16/16 17/17/17
f 18/18/18 7/7/7 19/19/19
f 20/20/20 17/17/17 6/6/6
f 21/21/21 22/22/22 23/23/23
f 15/24/15 24/25/24 25/26/25
f 17/17/17 26/27/26 7/7/7
f 7/7/7 24/28/24 19/19/19
f 22/22/22 27/29/27 23/23/23
f 28/30/28 29/31/29 22/32/22
f 21/21/21 30/33/30 31/34/31
f 31/34/31 29/35/29 32/36/32
f 14/14/14 33/37/33 34/38/34
f 33/37/33 4/4/4 35/39/35
f 35/39/35 5/5/5 36/40/36
f 37/41/37 10/10/10 38/42/38
f 39/43/39 40/44/40 41/45/41
f 4/4/4 10/10/10 42/46/42
f 13/13/13 11/11/11 37/41/37
f 40/44/40 43/47/43 44/48/44
f 41/45/41 44/48/44 45/49/45
f 46/50/46 44/48/44 47/51/47
f 46/50/46 48/52/48 39/43/39
f 49/53/49 43/47/43 50/54/50
f 44/48/44 51/55/51 47/51/47
f 48/52/48 51/55/51 49/53/49
f 40/44/40 49/53/49 50/54/50
f 37/41/37 39/43/39 13/13/13
f 37/41/37 45/49/45 46/50/46
f 38/42/38 41/45/41 45/49/45
f 13/13/13 41/45/41 4/4/4
f 52/56/52 53/57/53 54/58/54
f 29/31/29 53/59/53 22/32/22
f 30/33/30 55/60/55 52/56/52
f 29/35/29 52/56/52 54/61/54
f 27/29/27 56/62/56 57/63/57
f 53/59/53 58/64/58 22/32/22
f 53/57/53 57/63/57 56/65/56
f 55/60/55 27/29/27 57/63/57
f 24/28/24 31/34/31 32/36/32
f 26/27/26 21/21/21 31/34/31
f 24/25/24 28/30/28 25/26/25
f 16/16/16 28/66/28 21/21/21
f 59/67/59 60/68/60 61/69/61
f 9/9/9 2/2/2 42/46/42
f 12/12/12 62/70/62 9/9/9
f 63/71/63 64/72/64 65/73/65
f 66/74/66 61/69/61 67/75/67
f 68/76/68 67/75/67 69/77/69
f 35/39/35 20/20/20 6/6/6
f 33/37/33 18/18/18 34/38/34
f 35/39/35 8/8/8 33/37/33
f 70/78/70 71/79/71 72/80/72
f 61/69/61 73/81/73 70/78/70
f 61/69/61 74/82/74 67/75/67
f 72/80/72 75/83/75 63/71/63
f 70/78/70 63/71/63 74/82/74
f 74/82/74 76/84/76 67/75/67
f 76/84/76 77/85/77 78/86/78
f 77/85/77 65/73/65 64/87/64
f 69/77/69 76/84/76 78/86/78
f 74/82/74 65/73/65 79/88/79
f 3/3/3 66/74/66 68/76/68
f 2/2/2 59/67/59 66/74/66
f 80/89/80 59/67/59 62/70/62
f 1/1/1 81/90/81 82/91/82
f 83/92/83 1/1/1 82/91/82
f 84/93/84 85/94/85 86/95/86
f 87/96/87 88/97/88 82/91/82
f 89/98/89 12/12/12 14/14/14
f 90/99/90 15/15/15 91/100/91
f 18/18/18 84/93/84 86/95/86
f 91/100/91 20/20/20 85/94/85
f 92/101/92 93/102/93 94/103/94
f 15/24/15 95/104/95 19/105/19
f 96/106/96 91/100/91 84/93/84
f 95/107/95 84/93/84 19/19/19
f 97/108/97 93/102/93 98/109/98
f 94/110/94 99/111/99 100/112/100
f 101/113/101 92/101/92 102/114/102
f 99/115/99 102/114/102 100/116/100
f 103/117/103 14/14/14 34/38/34
f 103/117/103 83/92/83 89/98/89
f 104/118/104 5/5/5 83/92/83
f 105/119/105 88/97/88 106/120/106
f 107/121/107 108/122/108 109/123/109
f 88/97/88 83/92/83 82/91/82
f 89/98/89 106/120/106 87/96/87
f 110/124/110 107/121/107 111/125/111
f 111/125/111 109/123/109 112/126/112
f 113/127/113 111/125/111 112/126/112
f 114/128/114 113/127/113 108/122/108
f 110/124/110 115/129/115 116/130/116
f 117/131/117 111/125/111 118/132/118
f 114/128/114 117/131/117 118/132/118
f 116/130/116 114/128/114 107/121/107
f 108/122/108 105/119/105 89/98/89
f 105/119/105 112/126/112 119/133/119
f 119/133/119 109/123/109 83/92/83
f 109/123/109 89/98/89 83/92/83
f 120/134/120 121/135/121 122/136/122
f 120/137/120 99/111/99 93/138/93
f 101/113/101 123/139/123 98/109/98
f 99/115/99 121/135/121 101/113/101
f 97/108/97 124/140/124 125/141/125
f 125/142/125 120/137/120 93/138/93
f 120/134/120 126/143/126 123/139/123
f 123/139/123 97/108/97 98/109/98
f 95/107/95 102/114/102 96/106/96
f 96/106/96 92/101/92 90/99/90
f 94/110/94 95/104/95 127/144/127
f 90/99/90 94/103/94 127/145/127
f 128/146/128 60/68/60 129/147/129
f 81/90/81 87/96/87 82/91/82
f 130/148/130 12/12/12 87/96/87
f 131/149/131 64/72/64 75/83/75
f 132/150/132 133/151/133 128/146/128
f 68/76/68 134/152/134 132/150/132
f 104/118/104 20/20/20 36/40/36
f 18/18/18 103/117/103 34/38/34
f 86/95/86 104/118/104 103/117/103
f 135/153/135 71/79/71 73/81/73
f 133/151/133 73/81/73 60/68/60
f 136/154/136 133/151/133 134/152/134
f 137/155/137 75/83/75 71/156/71
f 131/149/131 135/153/135 136/154/136
f 138/157/138 136/154/136 134/152/134
f 77/85/77 138/157/138 78/86/78
f 77/85/77 139/158/139 140/159/140
f 69/77/69 138/157/138 134/152/134
f 136/154/136 139/158/139 131/149/131
f 3/3/3 132/150/132 81/90/81
f 81/90/81 128/146/128 130/148/130
f 128/146/128 80/89/80 130/148/130
f 1/1/1 42/46/42 2/2/2
f 4/4/4 42/46/42 1/1/1
f 6/6/6 17/17/17 7/7/7
f 9/9/9 42/46/42 10/10/10
f 12/12/12 9/9/9 13/13/13
f 15/15/15 25/160/25 16/16/16
f 18/18/18 8/8/8 7/7/7
f 20/20/20 15/15/15 17/17/17
f 21/21/21 28/66/28 22/22/22
f 15/24/15 19/105/19 24/25/24
f 17/17/17 16/16/16 26/27/26
f 7/7/7 26/27/26 24/28/24
f 22/22/22 58/161/58 27/29/27
f 28/30/28 32/162/32 29/31/29
f 21/21/21 23/23/23 30/33/30
f 31/34/31 30/33/30 29/35/29
f 14/14/14 13/13/13 33/37/33
f 33/37/33 13/13/13 4/4/4
f 35/39/35 4/4/4 5/5/5
f 37/41/37 11/11/11 10/10/10
f 39/43/39 48/52/48 40/44/40
f 4/4/4 38/42/38 10/10/10
f 13/13/13 9/9/9 11/11/11
f 40/44/40 50/54/50 43/47/43
f 41/45/41 40/44/40 44/48/44
f 46/50/46 45/49/45 44/48/44
f 46/50/46 47/51/47 48/52/48
f 49/53/49 51/55/51 43/47/43
f 44/48/44 43/47/43 51/55/51
f 48/52/48 47/51/47 51/55/51
f 40/44/40 48/52/48 49/53/49
f 37/41/37 46/50/46 39/43/39
f 37/41/37 38/42/38 45/49/45
f 38/42/38 4/4/4 41/45/41
f 13/13/13 39/43/39 41/45/41
f 52/56/52 55/60/55 53/57/53
f 29/31/29 54/163/54 53/59/53
f 30/33/30 23/23/23 55/60/55
f 29/35/29 30/33/30 52/56/52
f 27/29/27 58/161/58 56/62/56
f 53/59/53 56/164/56 58/64/58
f 53/57/53 55/60/55 57/63/57
f 55/60/55 23/23/23 27/29/27
f 24/28/24 26/27/26 31/34/31
f 26/27/26 16/16/16 21/21/21
f 24/25/24 32/162/32 28/30/28
f 16/16/16 25/160/25 28/66/28
f 59/67/59 129/147/129 60/68/60
f 9/9/9 62/70/62 2/2/2
f 12/12/12 80/89/80 62/70/62
f 63/71/63 75/83/75 64/72/64
f 66/74/66 59/67/59 61/69/61
f 68/76/68 66/74/66 67/75/67
f 35/39/35 36/40/36 20/20/20
f 33/37/33 8/8/8 18/18/18
f 35/39/35 6/6/6 8/8/8
f 70/78/70 73/81/73 71/79/71
f 61/69/61 60/68/60 73/81/73
f 61/69/61 70/78/70 74/82/74
f 72/80/72 71/156/71 75/83/75
f 70/78/70 72/80/72 63/71/63
f 74/82/74 79/88/79 76/84/76
f 76/84/76 79/88/79 77/85/77
f 77/85/77 79/88/79 65/73/65
f 69/77/69 67/75/67 76/84/76
f 74/82/74 63/71/63 65/73/65
f 3/3/3 2/2/2 66/74/66
f 2/2/2 62/70/62 59/67/59
f 80/89/80 129/147/129 59/67/59
f 1/1/1 3/3/3 81/90/81
f 83/92/83 5/5/5 1/1/1
f 84/93/84 91/100/91 85/94/85
f 87/96/87 106/120/106 88/97/88
f 89/98/89 87/96/87 12/12/12
f 90/99/90 127/145/127 15/15/15
f 18/18/18 19/19/19 84/93/84
f 91/100/91 15/15/15 20/20/20
f 92/101/92 98/109/98 93/102/93
f 15/24/15 127/144/127 95/104/95
f 96/106/96 90/99/90 91/100/91
f 95/107/95 96/106/96 84/93/84
f 97/108/97 125/141/125 93/102/93
f 94/110/94 93/138/93 99/111/99
f 101/113/101 98/109/98 92/101/92
f 99/115/99 101/113/101 102/114/102
f 103/117/103 89/98/89 14/14/14
f 103/117/103 104/118/104 83/92/83
f 104/118/104 36/40/36 5/5/5
f 105/119/105 119/133/119 88/97/88
f 107/121/107 114/128/114 108/122/108
f 88/97/88 119/133/119 83/92/83
f 89/98/89 105/119/105 106/120/106
f 110/124/110 116/130/116 107/121/107
f 111/125/111 107/121/107 109/123/109
f 113/127/113 118/132/118 111/125/111
f 114/128/114 118/132/118 113/127/113
f 110/124/110 117/131/117 115/129/115
f 117/131/117 110/124/110 111/125/111
f 114/128/114 115/129/115 117/131/117
f 116/130/116 115/129/115 114/128/114
f 108/122/108 113/127/113 105/119/105
f 105/119/105 113/127/113 112/126/112
f 119/133/119 112/126/112 109/123/109
f 109/123/109 108/122/108 89/98/89
f 120/134/120 123/139/123 121/135/121
f 120/137/120 122/165/122 99/111/99
f 101/113/101 121/135/121 123/139/123
f 99/115/99 122/166/122 121/135/121
f 97/108/97 126/143/126 124/140/124
f 125/142/125 124/167/124 120/137/120
f 120/134/120 124/168/124 126/143/126
f 123/139/123 126/143/126 97/108/97
f 95/107/95 100/116/100 102/114/102
f 96/106/96 102/114/102 92/101/92
f 94/110/94 100/112/100 95/104/95
f 90/99/90 92/101/92 94/103/94
f 128/146/128 133/151/133 60/68/60
f 81/90/81 130/148/130 87/96/87
f 130/148/130 80/89/80 12/12/12
f 131/149/131 139/158/139 64/72/64
f 132/150/132 134/152/134 133/151/133
f 68/76/68 69/77/69 134/152/134
f 104/118/104 85/94/85 20/20/20
f 18/18/18 86/95/86 103/117/103
f 86/95/86 85/94/85 104/118/104
f 135/153/135 137/155/137 71/79/71
f 133/151/133 135/153/135 73/81/73
f 136/154/136 135/153/135 133/151/133
f 137/155/137 131/149/131 75/83/75
f 131/149/131 137/155/137 135/153/135
f 138/157/138 140/159/140 136/154/136
f 77/85/77 140/159/140 138/157/138
f 77/85/77 64/87/64 139/158/139
f 69/77/69 78/86/78 138/157/138
f 136/154/136 140/159/140 139/158/139
f 3/3/3 68/76/68 132/150/132
f 81/90/81 132/150/132 128/146/128
f 128/146/128 129/147/129 80/89/80
l 61 141
l 133 142
